<svg version="1.2" xmlns="http://www.w3.org/2000/svg" viewBox="0 0 873 591" width="873" height="591"><style>.a{fill:#ffb6b6}.b{fill:#e6e6e6}.c{fill:#3f3d56}.d{fill:#fff}.e{fill:#e4e4e4}.f{fill:#2f2e41}.g{fill:#14b47c}.h{fill:#ffb8b8}.i{fill:#9e616a}</style><path class="a" d="m364 305.8c1-1 1.8-2.2 2.3-3.5 0.5-1.4 0.7-2.8 0.6-4.2-0.1-1.4-0.6-2.8-1.3-4.1-0.7-1.2-1.7-2.3-2.8-3.1l15.9-77.1-17.2 5.4-12.8 74.6c-1.3 2.1-1.7 4.5-1.3 6.9 0.5 2.3 1.7 4.5 3.6 5.9 1.9 1.5 4.3 2.3 6.7 2.1 2.4-0.1 4.6-1.2 6.3-2.9z"/><path class="b" d="m400.9 99.7l-10.7-8c0 0-9.4-0.7-11 16.3-1.7 16.9-12.1 81.9-12.1 81.9l-16.3 75.5 22.5 4.9 17.5-81.4 17.5-56.2z"/><path class="c" d="m392.8 239.4l-51.1-39.8q-0.6-0.4-1-1.1-0.4-0.6-0.5-1.4-0.1-0.7 0.1-1.5 0.2-0.7 0.7-1.3l34.8-44.7q0.4-0.6 1.1-1 0.6-0.3 1.4-0.4 0.7-0.1 1.5 0.1 0.7 0.2 1.3 0.6l51.1 39.8q0.6 0.4 0.9 1.1 0.4 0.6 0.5 1.4 0.1 0.7-0.1 1.5-0.2 0.7-0.7 1.3l-34.7 44.7q-0.5 0.6-1.1 1-0.7 0.3-1.4 0.4-0.8 0.1-1.5-0.1-0.7-0.2-1.3-0.6z"/><path class="d" d="m392.5 235.2l-46.8-36.3q-0.5-0.4-0.8-1-0.4-0.6-0.4-1.2-0.1-0.7 0-1.4 0.2-0.6 0.6-1.1l31.5-40.6q0.5-0.5 1-0.8 0.6-0.3 1.3-0.4 0.7-0.1 1.3 0.1 0.6 0.1 1.2 0.5l46.7 36.4q0.6 0.4 0.9 1 0.3 0.6 0.4 1.2 0.1 0.7-0.1 1.4-0.2 0.6-0.6 1.1l-31.5 40.5q-0.4 0.6-1 0.9-0.6 0.3-1.2 0.4-0.7 0.1-1.3-0.1-0.7-0.1-1.2-0.6z"/><path class="e" d="m351.9 197.9q-0.2-0.1-0.3-0.3 0-0.1-0.1-0.3 0-0.2 0.1-0.3 0-0.2 0.1-0.3l15.9-20.5q0.2-0.2 0.6-0.3 0.3 0 0.6 0.2 0.3 0.2 0.3 0.6 0 0.3-0.2 0.6l-15.9 20.4q-0.1 0.2-0.2 0.2-0.2 0.1-0.3 0.1-0.2 0.1-0.3 0-0.2 0-0.3-0.1z"/><path class="e" d="m354.5 199.9q-0.1-0.1-0.2-0.2-0.1-0.2-0.1-0.3 0-0.2 0-0.4 0-0.1 0.1-0.3l15.9-20.4q0.3-0.3 0.6-0.3 0.3-0.1 0.6 0.1 0.3 0.3 0.3 0.6 0.1 0.4-0.1 0.6l-15.9 20.5q-0.1 0.1-0.3 0.2-0.1 0.1-0.3 0.1-0.2 0-0.3 0-0.2-0.1-0.3-0.2z"/><path class="e" d="m366.1 190.4q-0.1-0.1-0.2-0.3-0.1-0.1-0.1-0.3 0-0.1 0-0.3 0.1-0.2 0.2-0.3l6.9-8.9q0.2-0.2 0.5-0.3 0.4 0 0.7 0.2 0.2 0.2 0.3 0.6 0 0.3-0.2 0.6l-6.9 8.8q-0.1 0.2-0.2 0.3-0.2 0-0.3 0.1-0.2 0-0.4-0.1-0.1 0-0.3-0.1z"/><path class="e" d="m369.7 207.8q-0.2-0.1-0.2-0.3-0.1-0.1-0.1-0.3-0.1-0.2 0-0.3 0-0.2 0.1-0.3l25.1-32.3q0.2-0.3 0.6-0.3 0.3 0 0.6 0.2 0.3 0.2 0.3 0.5 0.1 0.4-0.1 0.7l-25.1 32.2q-0.1 0.2-0.3 0.2-0.1 0.1-0.3 0.1-0.2 0.1-0.3 0-0.2 0-0.3-0.1z"/><path class="e" d="m372.3 209.8q-0.1-0.1-0.2-0.2-0.1-0.2-0.1-0.3 0-0.2 0-0.4 0.1-0.1 0.2-0.3l25.1-32.2q0.2-0.3 0.5-0.4 0.4 0 0.6 0.2 0.3 0.2 0.4 0.6 0 0.3-0.2 0.6l-25.1 32.3q-0.1 0.1-0.2 0.2-0.2 0.1-0.4 0.1-0.1 0-0.3 0-0.2-0.1-0.3-0.2z"/><path class="e" d="m378.3 214.5q-0.1-0.1-0.2-0.3-0.1-0.1-0.1-0.3 0-0.2 0-0.3 0-0.2 0.1-0.3l25.1-32.3q0.3-0.3 0.6-0.3 0.3 0 0.6 0.2 0.3 0.2 0.3 0.5 0.1 0.4-0.1 0.7l-25.1 32.2q-0.1 0.2-0.3 0.2-0.1 0.1-0.3 0.1-0.1 0.1-0.3 0-0.2 0-0.3-0.1z"/><path class="e" d="m380.9 216.5q-0.1-0.1-0.2-0.2-0.1-0.2-0.1-0.3 0-0.2 0-0.4 0.1-0.1 0.2-0.3l25.1-32.2q0.2-0.3 0.5-0.4 0.4 0 0.7 0.2 0.2 0.2 0.3 0.6 0 0.3-0.2 0.6l-25.1 32.3q-0.1 0.1-0.2 0.2-0.2 0.1-0.3 0.1-0.2 0-0.4 0-0.1-0.1-0.3-0.2z"/><path class="e" d="m386.9 221.2q-0.1-0.1-0.2-0.3-0.1-0.1-0.1-0.3 0-0.2 0-0.3 0.1-0.2 0.2-0.3l25-32.3q0.3-0.3 0.6-0.3 0.4 0 0.6 0.2 0.3 0.2 0.4 0.5 0 0.4-0.2 0.7l-25.1 32.2q-0.1 0.1-0.3 0.2-0.1 0.1-0.3 0.1-0.1 0.1-0.3 0-0.2 0-0.3-0.1z"/><path class="e" d="m389.5 223.2q-0.1-0.1-0.2-0.2-0.1-0.2-0.1-0.3 0-0.2 0-0.4 0.1-0.1 0.2-0.3l25.1-32.2q0.2-0.3 0.5-0.4 0.4 0 0.7 0.2 0.2 0.2 0.3 0.6 0 0.3-0.2 0.6l-25.1 32.3q-0.1 0.1-0.2 0.2-0.2 0.1-0.3 0.1-0.2 0-0.4 0-0.1-0.1-0.3-0.2z"/><path class="d" d="m347.6 260.7c-0.2 0-0.3-0.2-0.3-0.4 0-0.2 0.1-0.3 0.3-0.3 0.2 0 0.4 0.1 0.4 0.3 0 0.2-0.2 0.4-0.4 0.4z"/><path class="f" d="m398.1 21.8q-0.4 2.5-1 4.9-0.6 2.4-1.4 4.8-0.7 2.4-1.6 4.7-0.9 2.3-1.9 4.6c-15.7 33.2 28.9 22.4 44.9 22.4 17.4 0 34.1 9.1 31.6-31.6-1.1-17.4-14.2-31.6-31.6-31.6-14.9 0-35.9 6.6-39 21.8z"/><path class="a" d="m453.3 508.1h-14.8l-7.1-57.3h21.9v57.3z"/><path class="f" d="m461.2 533.8h-10.7l-1.9-10-4.8 10h-28.3c-1.4 0-2.7-0.4-3.8-1.2-1.1-0.8-1.9-1.9-2.3-3.2-0.4-1.3-0.4-2.7 0.1-4 0.4-1.3 1.3-2.4 2.4-3.2l22.6-15.5v-10.2l23.7 1.4z"/><path class="a" d="m541.6 489.3l-11.9 8.9-39.9-41.8 17.6-13.1 34.2 46z"/><path class="f" d="m563.3 505.3l-8.6 6.4-7.5-7 2.1 11-22.7 16.9c-1.1 0.8-2.4 1.2-3.8 1.2-1.3 0-2.6-0.4-3.7-1.2-1.1-0.8-1.9-1.9-2.3-3.2-0.4-1.3-0.4-2.7 0-4l8.8-25.9-6.1-8.2 19.9-13z"/><path class="a" d="m404.7 244.3l70.5-11-14-42.2h-56.5v53.2z"/><path class="f" d="m470.6 212.4c0 0 28.2 24.3 15.2 93.8l-15.9 68 43.3 75.1-22 12-53.3-74.1-24.4-57.2-12.9-100.3z"/><path class="f" d="m426.9 346.3l-1.7 26.3 5 77.7 24.7 8.5 4.6-79.7-32.6-32.8z"/><path class="b" d="m419.4 71.9l27.2 1.1 10.9 18 24.8 4.8-14.8 74.9 2.7 42.6-24.7-0.1q-6.6-0.1-13.1 1.1-6.5 1.2-12.7 3.5-6.2 2.3-11.9 5.7-5.6 3.4-10.6 7.8l0.7-55.3-10.6-41.3 2.4-43.3 20-2.5z"/><path class="a" d="m434.5 63.1c-14.2 0-25.7-11.4-25.7-25.6 0-14.2 11.5-25.7 25.7-25.7 14.2 0 25.6 11.5 25.6 25.7 0 14.2-11.4 25.6-25.6 25.6z"/><path class="f" d="m417 11.3c4.5-2.7 9.7-4.2 15-4.3 5.2 0 10.4 1.3 15 3.9 4.5 2.7 8.3 6.5 10.9 11 2.6 4.6 3.9 9.8 3.8 15.1-13 3.3-26.8 5.8-40.7 0.8l-3.3-8.1-2 8.1c-4.2 1.7-8.5 3.2-12.7 0-0.1-2.7 0.2-5.3 0.7-7.8 0.6-2.6 1.6-5 2.8-7.3 1.2-2.3 2.7-4.5 4.5-6.4 1.8-1.9 3.8-3.6 6-5z"/><path fill-rule="evenodd" class="g" d="m477.4 263.3q0.2-0.9 0.7-1.6 0.6-0.8 1.4-1.2 0.8-0.4 1.7-0.4h24.5q0.4 0 0.9 0.1 0.4 0.1 0.7 0.3 0.4 0.1 0.7 0.4 0.4 0.2 0.6 0.5c1.9-0.3 3.8 0.3 5.1 1.6 1.4 1.2 2 3.1 1.8 5-0.3 1.8-1.4 3.4-3.1 4.3-1.6 0.9-3.6 0.9-5.3 0.1l-2.8 24.1q-0.2 0.5-0.6 1-0.3 0.5-0.8 0.9-0.5 0.4-1.1 0.6-0.6 0.2-1.2 0.2h-15.9q-0.7 0-1.2-0.2-0.6-0.2-1.1-0.6-0.5-0.4-0.9-0.9-0.3-0.5-0.5-1l-3.5-31.4q-0.2-0.9-0.1-1.8zm30.7 7.7q0.3 0.1 0.5 0.2 0.3 0 0.5 0.1 0.3 0 0.6 0c1.1 0 2.1-0.4 2.9-1.2 0.8-0.8 1.2-1.8 1.2-2.9 0-1.1-0.4-2.2-1.2-3-0.8-0.8-1.8-1.2-2.9-1.2q-0.1 0-0.2 0 0 0.3 0 0.5 0.1 0.3 0.1 0.6 0 0.2-0.1 0.5 0 0.2-0.1 0.5l-1.8 5.7q0.3 0.1 0.5 0.2z"/><path class="a" d="m501.6 299.2c-1-1-1.8-2.3-2.3-3.6-0.5-1.3-0.6-2.8-0.5-4.2 0.1-1.4 0.6-2.8 1.3-4 0.7-1.3 1.7-2.3 2.8-3.1l-15.5-77.2 17.2 5.5 12.4 74.7c1.2 2 1.7 4.5 1.2 6.8-0.4 2.4-1.7 4.5-3.6 6-1.9 1.4-4.3 2.2-6.7 2-2.4-0.2-4.6-1.2-6.3-2.9z"/><path class="b" d="m471.6 103.9l10.7-8.1c0 0 9.4-0.6 11 16.3 1.7 16.9 12.1 82 12.1 82l16.3 75.4-22.5 5-17.5-81.5-17.5-56.1z"/><path class="g" d="m379.7 174.1c-3.3 0-6-2.7-6-6 0-3.3 2.7-6 6-6 3.4 0 6.1 2.7 6.1 6 0 3.3-2.7 6-6.1 6z"/><path class="a" d="m187.5 578h12.6l6-48.4h-18.6v48.4z"/><path class="f" d="m184.3 573.9h3.6l13.8-5.6 7.4 5.6c2 0 4.1 0.4 6 1.2 1.9 0.8 3.7 2 5.1 3.4 1.5 1.5 2.7 3.2 3.4 5.1 0.8 1.9 1.2 4 1.2 6.1v0.5h-40.5z"/><path class="a" d="m236.2 570.1l12.3 2.8 16.5-46-18.1-4.1-10.7 47.3z"/><path class="f" d="m234 565.4l3.4 0.8 14.7-2.5 6 7.1c2 0.5 4 1.3 5.6 2.5 1.7 1.2 3.2 2.7 4.3 4.5 1.1 1.7 1.8 3.7 2.2 5.7 0.3 2.1 0.3 4.2-0.2 6.2l-0.1 0.5-39.5-8.9z"/><path class="f" d="m164.5 328.8l11.4 127.2c0 0-4.2 76.5 9.5 103.3h19.9l9.9-110.2 1.2-74 42.7 62.4-27.2 120 24.5 2.2 44.1-130.2-48.4-122.3z"/><path class="h" d="m176.4 126.1c-16.2 0-29.2-13.1-29.2-29.3 0-16.2 13-29.3 29.2-29.3 16.2 0 29.3 13.1 29.3 29.3 0 16.2-13.1 29.3-29.3 29.3z"/><path class="c" d="m227.9 154l-24-10.3-11.7-12.4-29.2 4.7-7.8 13.3-25.1 23.4 29.4 132.9-0.9 29.1c0 0 18.9 8.5 100.5-11 1-0.3-1.1-1.3-1.1-1.3z"/><path class="f" d="m146 113.5q-0.3-0.5-0.6-0.9-0.1 0.3-0.3 0.5z"/><path class="f" d="m205.6 75.4q-0.7-1.6-1.8-3-1-1.4-2.2-2.6-1.3-1.2-2.7-2.2-1.5-1-3.1-1.6-1.6-0.7-3.3-1-1.7-0.3-3.4-0.3-1.7 0-3.4 0.3-1.7 0.3-3.3 1c-3.8-2.5-8.1-4.4-12.7-4.7-4.5-0.2-9.3 1.5-12.1 5.2q-0.2 0.4-0.5 0.7-0.2 0.4-0.5 0.7-0.3 0.4-0.5 0.7-0.3 0.3-0.6 0.6c-2.3 2.1-5.7 1.8-8.7 1.4q2.1 1.7 4.1 3.4-2.5 0.7-4.9 1.3 2.8 1.7 5.7 3.4c-5.5 3.3-8 10.5-7.3 17.1 0.6 6.1 3.6 11.8 7.1 16.8 1.4-3 1.1-6.6 1.1-10 0-3.5 0.6-7.6 3.5-9.6 1.9-1.3 4.4-1.4 6.7-1.4q4.4 0 8.8 0.2 4.5 0.1 8.8 0.4 4.4 0.3 8.8 0.7 4.4 0.4 8.8 0.9 0.6 0 1.2 0.1 0.6 0.1 1.1 0.3 0.6 0.2 1.1 0.4 0.6 0.2 1.1 0.5c2.6 1.8 3.1 5.4 3.3 8.6q0.6-2 0.9-4 0.4-2 0.7-4 0.2-2 0.3-4.1 0.1-2 0.1-4 0.1-1.6-0.1-3.1-0.1-1.6-0.4-3.1-0.2-1.6-0.7-3.1-0.4-1.4-1-2.9z"/><path class="d" d="m214.7 418c-25.5 0-46.1-20.6-46.1-46.1 0-25.5 20.6-46.1 46.1-46.1 25.5 0 46.1 20.6 46.1 46.1 0 25.5-20.6 46.1-46.1 46.1z"/><path fill-rule="evenodd" class="c" d="m252.9 344.3c8.9 12.3 11.3 28.1 6.5 42.4-4.7 14.4-16.1 25.6-30.5 30.1-14.5 4.6-30.2 1.9-42.4-7.1q-1.2-1-2.4-2c-6.6-5.6-11.6-13-14.2-21.3-2.7-8.3-3.1-17.2-1-25.7 2.1-8.5 6.5-16.2 12.7-22.3 6.2-6.2 14-10.5 22.5-12.4q1.7-0.4 3.5-0.7 0.9-0.1 1.8-0.2 0.9-0.1 1.8-0.2 0.8-0.1 1.7-0.1 0.9 0 1.8 0c15.1 0 29.4 7.2 38.2 19.5zm-6.3 59.5c8.4-8.5 13.2-19.9 13.2-31.9 0-12-4.8-23.4-13.2-31.9-8.5-8.4-19.9-13.2-31.9-13.2q-0.7 0-1.4 0-0.7 0.1-1.4 0.1-0.6 0-1.3 0.1-0.7 0.1-1.4 0.2-1.8 0.2-3.5 0.5c-8.3 1.7-15.9 5.7-22.1 11.5-6.1 5.9-10.5 13.3-12.6 21.5-2.1 8.2-1.8 16.8 0.8 24.9 2.6 8.1 7.4 15.2 13.8 20.7q1.2 1 2.5 1.9 2.8 2.2 6 3.8 3.2 1.6 6.6 2.7 3.4 1.2 6.9 1.7 3.5 0.6 7.1 0.6c12 0 23.4-4.8 31.9-13.2z"/><path class="g" d="m240.3 359.7c0 1.6-1.3 3-3 3h-45.2c-1.7 0-3-1.4-3-3v-0.2c0-1.6 1.3-3 3-3h45.2c1.7 0 3 1.4 3 3z"/><path class="g" d="m240.3 372c0 1.6-1.3 3-3 3h-45.2c-1.7 0-3-1.4-3-3v-0.2c0-1.6 1.3-3 3-3h45.2c1.7 0 3 1.4 3 3z"/><path class="g" d="m240.3 384.3c0 1.6-1.3 3-3 3h-45.2c-1.7 0-3-1.4-3-3v-0.2c0-1.6 1.3-3 3-3h45.2c1.7 0 3 1.4 3 3z"/><path class="i" d="m730.5 576.4h-13.2l-6.2-50.8h19.4v50.8z"/><path class="i" d="m668.2 576.4h-13.2l-6.2-50.8h19.4v50.8z"/><path class="f" d="m668.7 590.2h-40.5v-0.5c0-2.1 0.4-4.2 1.2-6.1 0.8-1.9 1.9-3.6 3.4-5.1 1.5-1.4 3.2-2.6 5.1-3.4 1.9-0.8 4-1.2 6-1.2l7.4-5.6 13.8 5.6h3.6z"/><path class="f" d="m732.7 590.2h-40.5v-0.5c0-2.1 0.4-4.2 1.2-6.1 0.8-1.9 1.9-3.6 3.4-5.1 1.5-1.4 3.2-2.6 5.1-3.4 1.9-0.8 4-1.2 6-1.2l7.4-5.6 13.8 5.6h3.6z"/><path class="f" d="m655.3 275.8l-20 121.9 5.4 18.1-7.1 12.9 10.5 113-4.3 9.3 11.9 7.4h24.2l1.3-102.3 6-15v-8.3l12.2-62.3 2.2 87.3 3.6 15-3 10.7 3.9 7.5 10.3 69.6h27.2l-2.1-16.2q1.8-0.9 3.2-2.3 1.3-1.4 2.2-3.2 0.8-1.8 1.1-3.8 0.2-2-0.2-3.9l-1.6-7.1 3.6-21 6.4-117-1.8-94.4-31.8-24.3z"/><path class="i" d="m701.2 119.3c-14 0-25.3-11.3-25.3-25.3 0-13.9 11.3-25.2 25.3-25.2 13.9 0 25.2 11.3 25.2 25.2 0 14-11.3 25.3-25.2 25.3z"/><path class="i" d="m646 324.1c1.1-1.1 2-2.5 2.5-3.9 0.5-1.5 0.7-3.1 0.5-4.7-0.1-1.6-0.7-3.1-1.5-4.4-0.8-1.4-1.9-2.5-3.2-3.4l9.8-37.1-18.9 6.3-6.4 34.3c-1.3 2.3-1.8 5-1.3 7.6 0.6 2.6 2 4.9 4.2 6.5 2.1 1.6 4.7 2.4 7.4 2.2 2.6-0.2 5.1-1.4 6.9-3.4z"/><path class="b" d="m656.4 146l-4.1-0.9-3.5 1.9c0 0-9.6 12.9-9.6 24.7 0 11.9-11.8 125.7-11.8 125.7l21.4 9.7 17.2-89.2z"/><path class="f" d="m723.3 75.5c0 0 6.6-12.6-7.9-13.7 0 0-12.4-11.3-25-2.1 0 0-6.9 0-10.7 7.8 0 0-5.4-2.1-6.6 3.4 0 0-4 11.5 0 21.8 4 10.4 5.3 11.5 5.3 11.5 0 0-6.5-21.6 9.3-22.8 15.9-1.1 33.6-11 34.9 1.6 1.3 12.6 3.3 15.7 3.3 15.7 0 0 12.6-18-2.6-23.2z"/><path class="d" d="m815.5 428.7q-0.7 0-1.4-0.1-0.7-0.2-1.4-0.4-0.6-0.3-1.3-0.6-0.6-0.4-1.1-0.9l-76.4-68q-1.1-1-1.8-2.4-0.7-1.4-0.8-2.9 0-1.6 0.5-3 0.5-1.5 1.5-2.7l48.9-54.9q1.1-1.2 2.4-1.9 1.4-0.6 3-0.7 1.5-0.1 3 0.4 1.5 0.5 2.6 1.5l76.4 68q1.1 1.1 1.8 2.5 0.7 1.3 0.8 2.9 0.1 1.5-0.4 3-0.5 1.5-1.6 2.6l-48.9 55q-0.5 0.6-1.1 1-0.6 0.5-1.3 0.8-0.7 0.3-1.5 0.5-0.7 0.2-1.5 0.3-0.2 0-0.4 0z"/><path fill-rule="evenodd" class="c" d="m815.5 429.2q-0.8 0-1.5-0.1-0.8-0.2-1.5-0.5-0.7-0.2-1.3-0.6-0.7-0.4-1.2-0.9l-76.4-68q-1.2-1.1-1.9-2.6-0.8-1.5-0.9-3.1 0-1.6 0.5-3.2 0.5-1.6 1.6-2.8l49-55q1-1.2 2.5-1.9 1.5-0.7 3.2-0.8 1.6-0.1 3.2 0.4 1.5 0.6 2.7 1.7l76.4 68q1.3 1.1 2 2.5 0.7 1.5 0.8 3.2 0.1 1.6-0.5 3.2-0.5 1.5-1.6 2.7l-48.9 55q-0.6 0.6-1.2 1.1-0.7 0.5-1.4 0.9-0.7 0.3-1.5 0.5-0.8 0.2-1.6 0.3-0.3 0-0.5 0zm-27.5-137.5q-0.6 0-1.3 0.1-0.6 0.1-1.2 0.4-0.6 0.3-1.2 0.7-0.5 0.4-1 0.9l-48.9 54.9q-0.8 1-1.2 2.2-0.4 1.1-0.4 2.4 0.1 1.2 0.7 2.4 0.5 1.1 1.4 1.9l76.4 68q0.9 0.8 2.1 1.2 1.2 0.4 2.5 0.4 1.2-0.1 2.3-0.6 1.1-0.6 2-1.5l48.9-55q0.8-0.9 1.2-2.1 0.5-1.2 0.4-2.4-0.1-1.3-0.6-2.4-0.6-1.1-1.5-2l-76.4-67.9q-0.4-0.4-0.9-0.7-0.5-0.3-1-0.5-0.6-0.2-1.1-0.3-0.6-0.1-1.2-0.1z"/><path class="g" d="m843.2 376.6q-0.3 0-0.6 0-0.3-0.1-0.6-0.2-0.3-0.1-0.6-0.3-0.2-0.1-0.5-0.3l-59.9-53.4c-0.7-0.6-1.1-1.4-1.1-2.3-0.1-0.9 0.2-1.8 0.8-2.5 0.6-0.6 1.4-1 2.3-1.1 0.9 0 1.8 0.3 2.5 0.9l59.9 53.4c0.5 0.4 0.9 1 1 1.7 0.2 0.6 0.2 1.3-0.1 2-0.2 0.6-0.7 1.2-1.2 1.5-0.6 0.4-1.2 0.6-1.9 0.6z"/><path class="g" d="m831.7 389.5q-0.3 0-0.6-0.1-0.3 0-0.6-0.1-0.2-0.1-0.5-0.3-0.3-0.2-0.5-0.4l-60-53.3c-0.6-0.6-1-1.5-1.1-2.4 0-0.9 0.3-1.7 0.9-2.4 0.6-0.7 1.4-1.1 2.3-1.1 0.9-0.1 1.8 0.2 2.4 0.8l60 53.4c0.5 0.5 0.8 1.1 1 1.7 0.2 0.7 0.1 1.4-0.1 2-0.3 0.6-0.7 1.2-1.2 1.6-0.6 0.4-1.3 0.6-2 0.6z"/><path class="g" d="m820.3 402.3q-0.3 0-0.6 0-0.3-0.1-0.6-0.2-0.3-0.1-0.5-0.3-0.3-0.1-0.5-0.3l-60-53.4c-0.7-0.6-1.1-1.4-1.1-2.3-0.1-0.9 0.2-1.8 0.8-2.5 0.6-0.6 1.5-1 2.4-1.1 0.8 0 1.7 0.3 2.4 0.9l59.9 53.3c0.6 0.5 0.9 1.1 1.1 1.8 0.1 0.6 0.1 1.3-0.1 2-0.3 0.6-0.7 1.1-1.3 1.5-0.5 0.4-1.2 0.6-1.9 0.6z"/><path class="i" d="m751.7 326.3c-0.7-1.3-1.2-2.9-1.3-4.4-0.1-1.6 0.1-3.2 0.7-4.7 0.5-1.5 1.4-2.8 2.6-3.9 1.1-1.1 2.5-1.9 3.9-2.4l0.1-38.4 16.6 11-2.6 34.8c0.7 2.5 0.5 5.2-0.7 7.6-1.2 2.4-3.2 4.3-5.7 5.3-2.4 1-5.2 1-7.7 0.1-2.5-0.9-4.6-2.6-5.9-5z"/><path class="b" d="m753.3 156.5l7.4-7.2 5.5 3.9c0 0 5.3 6.5 9.6 25.8 4.3 19.4 0 125.7 0 125.7l-23.6-3.2 3.2-55.9-9.6-47.2z"/><path class="c" d="m764.2 151.1l-25-12-17-15.8-31-0.2-10 13-26.4 9 4.4 91-3 7c0 0 2.1 1.9 3.1 2.9 0.9 1.1-1.4 9.9-1.4 9.9l-1.2 9.7 3.5 2.5-4.6 5.5-1.2 8.6c0 0 80.8-20.1 96 13.1 0.8 1.8-1.2-15.4-1.2-15.4l-2-12.5 2-11.3 3-3-5-5 3.2-23.9z"/><path class="h" d="m196.4 352.9c0.6-1.6 0.9-3.3 0.8-5-0.1-1.7-0.6-3.3-1.4-4.8-0.8-1.5-1.9-2.8-3.3-3.8-1.4-1-2.9-1.7-4.6-2.1l-5.6-40.8-16.1 14.1 7.8 36.6c-0.4 2.9 0.3 5.7 1.9 8.1 1.6 2.4 4 4.1 6.7 4.8 2.8 0.7 5.7 0.3 8.3-1 2.5-1.3 4.5-3.5 5.5-6.1z"/><path class="c" d="m133.2 171.9l-4.3 0.9-2.7 3.3c0 0-4.3 16.8 0.6 28.5 4.9 11.7 40.1 129.5 40.1 129.5l25.3 0.7-19.7-95.5z"/><path class="h" d="m232.9 346.9c-1.1-1.3-2-2.7-2.6-4.3-0.5-1.6-0.7-3.4-0.5-5 0.2-1.7 0.8-3.3 1.7-4.8 0.9-1.4 2.1-2.7 3.5-3.6l-10.1-40 20.2 7.1 6.5 36.9c1.4 2.5 1.8 5.4 1.2 8.2-0.6 2.8-2.2 5.2-4.5 6.9-2.3 1.7-5.1 2.5-7.9 2.2-2.9-0.2-5.5-1.5-7.5-3.6z"/><path class="c" d="m224.1 155.4l4.4-0.8 3.6 2.1c0 0 10.3 13.9 10.1 26.6-0.1 12.7 11.1 135.1 11.1 135.1l-23.2 10.1-17.3-95.9z"/></svg>