<svg id="visual" viewBox="0 0 900 600" width="900" height="600" xmlns="http://www.w3.org/2000/svg" xmlns:xlink="http://www.w3.org/1999/xlink" version="1.1"><rect x="0" y="0" width="900" height="600" fill="transparent"></rect><defs><linearGradient id="grad1_0" x1="33.3%" y1="0%" x2="100%" y2="100%"><stop offset="20%" stop-color="rgba(27, 31,34, 0.38)" stop-opacity="1"></stop><stop offset="80%" stop-color="rgba(27, 31,34, 0.38)" stop-opacity="1"></stop></linearGradient></defs><defs><linearGradient id="grad1_1" x1="33.3%" y1="0%" x2="100%" y2="100%"><stop offset="20%" stop-color="rgba(27, 31,34, 0.38)" stop-opacity="1"></stop><stop offset="80%" stop-color="#cb64a6" stop-opacity="1"></stop></linearGradient></defs><defs><linearGradient id="grad1_2" x1="33.3%" y1="0%" x2="100%" y2="100%"><stop offset="20%" stop-color="#aaaaee" stop-opacity="1"></stop><stop offset="80%" stop-color="#cb64a6" stop-opacity="1"></stop></linearGradient></defs><defs><linearGradient id="grad2_0" x1="0%" y1="0%" x2="66.7%" y2="100%"><stop offset="20%" stop-color="rgba(27, 31,34, 0.38)" stop-opacity="1"></stop><stop offset="80%" stop-color="rgba(27, 31,34, 0.38)" stop-opacity="1"></stop></linearGradient></defs><defs><linearGradient id="grad2_1" x1="0%" y1="0%" x2="66.7%" y2="100%"><stop offset="20%" stop-color="#cb64a6" stop-opacity="1"></stop><stop offset="80%" stop-color="rgba(27, 31,34, 0.38)" stop-opacity="1"></stop></linearGradient></defs><defs><linearGradient id="grad2_2" x1="0%" y1="0%" x2="66.7%" y2="100%"><stop offset="20%" stop-color="#cb64a6" stop-opacity="1"></stop><stop offset="80%" stop-color="#aaaaee" stop-opacity="1"></stop></linearGradient></defs><g transform="translate(900, 0)"><path d="M0 297.5C-31.8 291 -63.6 284.6 -87.1 268.2C-110.7 251.8 -126 225.5 -153.4 211.2C-180.8 196.8 -220.4 194.3 -240.6 174.8C-260.9 155.4 -261.9 119.1 -268.2 87.1C-274.5 55.2 -286 27.6 -297.5 0L0 0Z" fill="rgba(27, 31,34, 0.38)"></path><path d="M0 198.3C-21.2 194 -42.4 189.7 -58.1 178.8C-73.8 167.9 -84 150.4 -102.3 140.8C-120.6 131.2 -146.9 129.5 -160.4 116.6C-174 103.6 -174.6 79.4 -178.8 58.1C-183 36.8 -190.6 18.4 -198.3 0L0 0Z" fill="rgba(27, 31,34, 0.38)"></path><path d="M0 99.2C-10.6 97 -21.2 94.9 -29 89.4C-36.9 83.9 -42 75.2 -51.1 70.4C-60.3 65.6 -73.5 64.8 -80.2 58.3C-87 51.8 -87.3 39.7 -89.4 29C-91.5 18.4 -95.3 9.2 -99.2 0L0 0Z" fill="rgba(27, 31,34, 0.38)"></path></g><g transform="translate(0, 600)"><path d="M0 -297.5C31.7 -295.9 63.5 -294.3 91.9 -282.9C120.4 -271.5 145.5 -250.4 165.8 -228.1C186 -205.9 201.2 -182.4 220.1 -159.9C238.9 -137.4 261.4 -115.8 274.9 -89.3C288.4 -62.8 292.9 -31.4 297.5 0L0 0Z" fill="rgba(27, 31,34, 0.38)"></path><path d="M0 -198.3C21.2 -197.2 42.3 -196.2 61.3 -188.6C80.2 -181 97 -167 110.5 -152.1C124 -137.2 134.1 -121.6 146.7 -106.6C159.3 -91.6 174.2 -77.2 183.2 -59.5C192.2 -41.9 195.3 -20.9 198.3 0L0 0Z" fill="rgba(27, 31,34, 0.38)"></path><path d="M0 -99.2C10.6 -98.6 21.2 -98.1 30.6 -94.3C40.1 -90.5 48.5 -83.5 55.3 -76C62 -68.6 67.1 -60.8 73.4 -53.3C79.6 -45.8 87.1 -38.6 91.6 -29.8C96.1 -20.9 97.6 -10.5 99.2 0L0 0Z" fill="rgba(27, 31,34, 0.38)"></path></g></svg>