<svg id="visual" viewBox="0 0 900 600" width="900" height="600" xmlns="http://www.w3.org/2000/svg" xmlns:xlink="http://www.w3.org/1999/xlink" version="1.1"><rect x="0" y="0" width="900" height="600" fill="transparent"></rect><defs><linearGradient id="grad1_0" x1="33.3%" y1="0%" x2="100%" y2="100%"><stop offset="20%" stop-color="transparent" stop-opacity="1"></stop><stop offset="80%" stop-color="transparent" stop-opacity="1"></stop></linearGradient></defs><defs><linearGradient id="grad2_0" x1="0%" y1="0%" x2="66.7%" y2="100%"><stop offset="20%" stop-color="transparent" stop-opacity="1"></stop><stop offset="80%" stop-color="transparent" stop-opacity="1"></stop></linearGradient></defs><g transform="translate(900, 0)"><path d="M0 486.7C-42.6 431 -85.2 375.2 -149.2 360.3C-213.3 345.4 -298.8 371.3 -344.2 344.2C-389.6 317.1 -395 236.9 -412.1 170.7C-429.1 104.5 -457.9 52.2 -486.7 0L0 0Z" fill="rgba(27, 31,34, 0.38)"></path></g><g transform="translate(0, 600)"><path d="M0 -486.7C66.4 -483.4 132.8 -480.1 186.3 -449.7C239.7 -419.3 280.2 -362 309.7 -309.7C339.2 -257.5 357.6 -210.3 385.3 -159.6C412.9 -108.8 449.8 -54.4 486.7 0L0 0Z" fill="rgba(27, 31,34, 0.38)"></path></g></svg>